<svg xmlns="http://www.w3.org/2000/svg" width="28" height="28" fill="none"><g clip-path="url(#a)"><path fill="#FA501A" d="M0 0h28v28H0z"/><path fill="url(#b)" fill-opacity=".16" d="M0 0h28v28H0z"/><path fill="url(#c)" d="M0 0h28v28H0z"/><path fill="url(#d)" fill-opacity=".5" d="M0 0h28v28H0z" style="mix-blend-mode:soft-light"/><g filter="url(#e)"><path fill="#fff" d="M22.338 9.833h.833v8.334h-.833v2.5c0 .46-.373.833-.834.833h-15a.833.833 0 0 1-.833-.833V7.333c0-.46.373-.833.833-.833h15c.46 0 .834.373.834.833zm-1.667 8.334h-5a4.167 4.167 0 0 1 0-8.334h5V8.167H7.338v11.666H20.67zm.833-1.667v-5h-5.833a2.5 2.5 0 0 0 0 5zm-5.833-3.333h2.5v1.666h-2.5z"/></g><g filter="url(#f)" opacity=".9" style="mix-blend-mode:plus-lighter"><path stroke="url(#g)" stroke-linecap="round" stroke-width="20.602" d="M-10.026-34.48 23.56-8.827"/></g></g><defs><radialGradient id="c" cx="0" cy="0" r="1" gradientTransform="matrix(0 41.4169 -68.6225 0 14 .6)" gradientUnits="userSpaceOnUse"><stop offset=".43" stop-color="#000F1B"/><stop offset=".893" stop-color="#0079D6"/></radialGradient><radialGradient id="d" cx="0" cy="0" r="1" gradientTransform="rotate(90 5.751 8.249)scale(26.1579)" gradientUnits="userSpaceOnUse"><stop stop-color="#062237" stop-opacity="0"/><stop offset="1" stop-color="#BCE2FF"/></radialGradient><linearGradient id="b" x1="14" x2="14" y1="0" y2="28" gradientUnits="userSpaceOnUse"><stop stop-color="#fff"/><stop offset="1" stop-color="#fff" stop-opacity="0"/></linearGradient><linearGradient id="g" x1="-2.864" x2="19.222" y1="-30.255" y2="-37.451" gradientUnits="userSpaceOnUse"><stop stop-color="#00182A" stop-opacity="0"/><stop offset=".69" stop-color="#7EC7FF" stop-opacity=".76"/><stop offset=".94" stop-color="#fff"/></linearGradient><filter id="e" width="24" height="24" x="2" y="3" color-interpolation-filters="sRGB" filterUnits="userSpaceOnUse"><feFlood flood-opacity="0" result="BackgroundImageFix"/><feColorMatrix in="SourceAlpha" result="hardAlpha" values="0 0 0 0 0 0 0 0 0 0 0 0 0 0 0 0 0 0 127 0"/><feOffset dy="1"/><feGaussianBlur stdDeviation="1"/><feComposite in2="hardAlpha" operator="out"/><feColorMatrix values="0 0 0 0 0 0 0 0 0 0 0 0 0 0 0 0 0 0 0.21 0"/><feBlend in2="BackgroundImageFix" mode="plus-darker" result="effect1_dropShadow_80_249"/><feBlend in="SourceGraphic" in2="effect1_dropShadow_80_249" result="shape"/></filter><filter id="f" width="67.634" height="59.699" x="-27.05" y="-51.503" color-interpolation-filters="sRGB" filterUnits="userSpaceOnUse"><feFlood flood-opacity="0" result="BackgroundImageFix"/><feBlend in="SourceGraphic" in2="BackgroundImageFix" result="shape"/><feGaussianBlur result="effect1_foregroundBlur_80_249" stdDeviation="3.361"/></filter><clipPath id="a"><path fill="#fff" d="M0 0h28v28H0z"/></clipPath></defs></svg>